<mxfile host="65bd71144e">
    <diagram id="XzvL14MpV3o9M-MEGPuH" name="sequence">
        <mxGraphModel dx="1631" dy="848" grid="1" gridSize="10" guides="1" tooltips="1" connect="1" arrows="1" fold="1" page="1" pageScale="1" pageWidth="827" pageHeight="1169" math="0" shadow="0">
            <root>
                <mxCell id="0"/>
                <mxCell id="1" parent="0"/>
                <mxCell id="95" value="" style="endArrow=none;html=1;strokeWidth=1;entryX=0.5;entryY=1;entryDx=0;entryDy=0;startArrow=none;fillColor=#a20025;strokeColor=#6F0000;" parent="1" source="134" target="96" edge="1">
                    <mxGeometry width="50" height="50" relative="1" as="geometry">
                        <mxPoint x="120" y="650" as="sourcePoint"/>
                        <mxPoint x="120" y="90" as="targetPoint"/>
                    </mxGeometry>
                </mxCell>
                <mxCell id="96" value="" style="ellipse;whiteSpace=wrap;html=1;aspect=fixed;" parent="1" vertex="1">
                    <mxGeometry x="80" y="60" width="80" height="80" as="geometry"/>
                </mxCell>
                <mxCell id="97" value="" style="endArrow=none;html=1;strokeWidth=1;entryX=0.5;entryY=1;entryDx=0;entryDy=0;fillColor=#a20025;strokeColor=#6F0000;" parent="1" target="98" edge="1">
                    <mxGeometry width="50" height="50" relative="1" as="geometry">
                        <mxPoint x="280" y="650" as="sourcePoint"/>
                        <mxPoint x="240" y="90" as="targetPoint"/>
                    </mxGeometry>
                </mxCell>
                <mxCell id="98" value="" style="ellipse;whiteSpace=wrap;html=1;aspect=fixed;" parent="1" vertex="1">
                    <mxGeometry x="240" y="60" width="80" height="80" as="geometry"/>
                </mxCell>
                <mxCell id="99" value="&lt;font style=&quot;font-size: 18px;&quot;&gt;Domain&lt;/font&gt;" style="text;html=1;align=center;verticalAlign=middle;resizable=0;points=[];autosize=1;strokeColor=none;fillColor=none;" parent="1" vertex="1">
                    <mxGeometry x="65" y="25" width="110" height="40" as="geometry"/>
                </mxCell>
                <mxCell id="100" value="&lt;font style=&quot;font-size: 18px;&quot;&gt;Transformer&lt;/font&gt;" style="text;html=1;align=center;verticalAlign=middle;resizable=0;points=[];autosize=1;strokeColor=none;fillColor=none;" parent="1" vertex="1">
                    <mxGeometry x="220" y="20" width="120" height="40" as="geometry"/>
                </mxCell>
                <mxCell id="101" value="" style="rounded=0;whiteSpace=wrap;html=1;fontSize=18;" parent="1" vertex="1">
                    <mxGeometry x="100" y="160" width="40" height="160" as="geometry"/>
                </mxCell>
                <mxCell id="154" style="edgeStyle=none;comic=0;jumpStyle=none;html=1;exitX=1;exitY=0;exitDx=0;exitDy=0;shadow=0;strokeColor=default;fontSize=12;startArrow=none;startFill=0;endArrow=classic;endFill=1;sourcePerimeterSpacing=6;" parent="1" source="102" edge="1">
                    <mxGeometry relative="1" as="geometry">
                        <mxPoint x="440" y="160" as="targetPoint"/>
                    </mxGeometry>
                </mxCell>
                <mxCell id="102" value="" style="rounded=0;whiteSpace=wrap;html=1;fontSize=18;" parent="1" vertex="1">
                    <mxGeometry x="260" y="160" width="40" height="60" as="geometry"/>
                </mxCell>
                <mxCell id="103" value="" style="endArrow=classic;html=1;fontSize=18;exitX=1;exitY=0;exitDx=0;exitDy=0;entryX=0;entryY=0;entryDx=0;entryDy=0;" parent="1" source="101" target="102" edge="1">
                    <mxGeometry width="50" height="50" relative="1" as="geometry">
                        <mxPoint x="190" y="250" as="sourcePoint"/>
                        <mxPoint x="240" y="200" as="targetPoint"/>
                    </mxGeometry>
                </mxCell>
                <mxCell id="106" value="" style="ellipse;whiteSpace=wrap;html=1;aspect=fixed;" parent="1" vertex="1">
                    <mxGeometry x="720" y="60" width="80" height="80" as="geometry"/>
                </mxCell>
                <mxCell id="107" value="&lt;font style=&quot;font-size: 18px;&quot;&gt;ProductionBuffer&lt;/font&gt;" style="text;html=1;align=center;verticalAlign=middle;resizable=0;points=[];autosize=1;strokeColor=none;fillColor=none;" parent="1" vertex="1">
                    <mxGeometry x="680" y="20" width="160" height="40" as="geometry"/>
                </mxCell>
                <mxCell id="108" value="" style="ellipse;whiteSpace=wrap;html=1;aspect=fixed;" parent="1" vertex="1">
                    <mxGeometry x="1040" y="65" width="80" height="80" as="geometry"/>
                </mxCell>
                <mxCell id="109" value="&lt;span style=&quot;font-size: 18px;&quot;&gt;Delta&lt;/span&gt;" style="text;html=1;align=center;verticalAlign=middle;resizable=0;points=[];autosize=1;strokeColor=none;fillColor=none;" parent="1" vertex="1">
                    <mxGeometry x="1045" y="20" width="70" height="40" as="geometry"/>
                </mxCell>
                <mxCell id="111" value="" style="ellipse;whiteSpace=wrap;html=1;aspect=fixed;" parent="1" vertex="1">
                    <mxGeometry x="880" y="65" width="80" height="80" as="geometry"/>
                </mxCell>
                <mxCell id="112" value="" style="endArrow=none;html=1;strokeWidth=1;entryX=0.5;entryY=1;entryDx=0;entryDy=0;jumpStyle=none;strokeColor=#6F0000;shadow=0;backgroundOutline=0;enumerate=0;comic=0;fillColor=#a20025;startArrow=none;" parent="1" edge="1" source="168">
                    <mxGeometry width="50" height="50" relative="1" as="geometry">
                        <mxPoint x="759.41" y="655" as="sourcePoint"/>
                        <mxPoint x="759.41" y="145.0000000000001" as="targetPoint"/>
                    </mxGeometry>
                </mxCell>
                <mxCell id="113" value="" style="endArrow=none;html=1;strokeWidth=1;entryX=0.5;entryY=1;entryDx=0;entryDy=0;jumpStyle=none;strokeColor=#6F0000;shadow=0;backgroundOutline=0;enumerate=0;comic=0;fillColor=#a20025;" parent="1" edge="1">
                    <mxGeometry width="50" height="50" relative="1" as="geometry">
                        <mxPoint x="919.4099999999999" y="655" as="sourcePoint"/>
                        <mxPoint x="919.4099999999999" y="145.0000000000001" as="targetPoint"/>
                    </mxGeometry>
                </mxCell>
                <mxCell id="114" value="" style="endArrow=none;html=1;strokeWidth=1;entryX=0.5;entryY=1;entryDx=0;entryDy=0;jumpStyle=none;strokeColor=#6F0000;shadow=0;backgroundOutline=0;enumerate=0;comic=0;fillColor=#a20025;startArrow=none;" parent="1" edge="1" source="175">
                    <mxGeometry width="50" height="50" relative="1" as="geometry">
                        <mxPoint x="1079.4099999999999" y="655" as="sourcePoint"/>
                        <mxPoint x="1079.4099999999999" y="145.0000000000001" as="targetPoint"/>
                    </mxGeometry>
                </mxCell>
                <mxCell id="123" value="" style="ellipse;whiteSpace=wrap;html=1;aspect=fixed;" parent="1" vertex="1">
                    <mxGeometry x="1200" y="60" width="80" height="80" as="geometry"/>
                </mxCell>
                <mxCell id="124" value="&lt;span style=&quot;font-size: 18px;&quot;&gt;ServiceFraction&lt;/span&gt;" style="text;html=1;align=center;verticalAlign=middle;resizable=0;points=[];autosize=1;strokeColor=none;fillColor=none;" parent="1" vertex="1">
                    <mxGeometry x="1165" y="25" width="150" height="40" as="geometry"/>
                </mxCell>
                <mxCell id="125" value="" style="endArrow=oval;html=1;strokeWidth=1;sourcePerimeterSpacing=6;startArrow=none;startFill=0;endFill=1;jumpStyle=none;strokeColor=#6F0000;shadow=0;backgroundOutline=0;enumerate=0;comic=0;fillColor=#a20025;" parent="1" edge="1">
                    <mxGeometry width="50" height="50" relative="1" as="geometry">
                        <mxPoint x="1239" y="655" as="sourcePoint"/>
                        <mxPoint x="1239" y="315" as="targetPoint"/>
                    </mxGeometry>
                </mxCell>
                <mxCell id="135" value="" style="endArrow=none;html=1;strokeWidth=1;entryX=0.5;entryY=1;entryDx=0;entryDy=0;fillColor=#a20025;strokeColor=#6F0000;" parent="1" target="134" edge="1">
                    <mxGeometry width="50" height="50" relative="1" as="geometry">
                        <mxPoint x="120" y="650" as="sourcePoint"/>
                        <mxPoint x="120" y="140.0000000000001" as="targetPoint"/>
                    </mxGeometry>
                </mxCell>
                <mxCell id="134" value="" style="rounded=0;whiteSpace=wrap;html=1;fontSize=18;" parent="1" vertex="1">
                    <mxGeometry x="100" y="340" width="40" height="160" as="geometry"/>
                </mxCell>
                <mxCell id="136" value="for each&lt;br style=&quot;font-size: 12px;&quot;&gt;transformer" style="edgeLabel;html=1;align=center;verticalAlign=middle;resizable=0;points=[];fontSize=12;labelBackgroundColor=none;" parent="1" vertex="1" connectable="0">
                    <mxGeometry x="49.995714285714676" y="420" as="geometry">
                        <mxPoint x="8" y="-6" as="offset"/>
                    </mxGeometry>
                </mxCell>
                <mxCell id="159" style="edgeStyle=none;comic=0;sketch=0;jumpStyle=none;html=1;exitX=1;exitY=0;exitDx=0;exitDy=0;shadow=0;strokeColor=default;fontSize=12;startArrow=none;startFill=0;endArrow=classic;endFill=1;sourcePerimeterSpacing=6;entryX=0;entryY=0.5;entryDx=0;entryDy=0;entryPerimeter=0;" parent="1" source="137" target="174" edge="1">
                    <mxGeometry relative="1" as="geometry">
                        <mxPoint x="900" y="340" as="targetPoint"/>
                    </mxGeometry>
                </mxCell>
                <mxCell id="137" value="" style="rounded=0;whiteSpace=wrap;html=1;fontSize=18;" parent="1" vertex="1">
                    <mxGeometry x="260" y="340" width="40" height="60" as="geometry"/>
                </mxCell>
                <mxCell id="139" value="" style="endArrow=classic;html=1;fontSize=18;exitX=1;exitY=0;exitDx=0;exitDy=0;entryX=0;entryY=0;entryDx=0;entryDy=0;" parent="1" edge="1">
                    <mxGeometry width="50" height="50" relative="1" as="geometry">
                        <mxPoint x="140" y="340" as="sourcePoint"/>
                        <mxPoint x="260" y="340" as="targetPoint"/>
                    </mxGeometry>
                </mxCell>
                <mxCell id="144" value="" style="ellipse;whiteSpace=wrap;html=1;aspect=fixed;" parent="1" vertex="1">
                    <mxGeometry x="400" y="60" width="80" height="80" as="geometry"/>
                </mxCell>
                <mxCell id="145" value="" style="ellipse;whiteSpace=wrap;html=1;aspect=fixed;" parent="1" vertex="1">
                    <mxGeometry x="560" y="60" width="80" height="80" as="geometry"/>
                </mxCell>
                <mxCell id="146" value="&lt;span style=&quot;font-size: 18px;&quot;&gt;IResource&lt;/span&gt;" style="text;html=1;align=center;verticalAlign=middle;resizable=0;points=[];autosize=1;strokeColor=none;fillColor=none;" parent="1" vertex="1">
                    <mxGeometry x="535" y="20" width="130" height="40" as="geometry"/>
                </mxCell>
                <mxCell id="147" value="&lt;font style=&quot;font-size: 18px;&quot;&gt;IResource&lt;/font&gt;" style="text;html=1;align=center;verticalAlign=middle;resizable=0;points=[];autosize=1;strokeColor=none;fillColor=none;" parent="1" vertex="1">
                    <mxGeometry x="385" y="20" width="110" height="40" as="geometry"/>
                </mxCell>
                <mxCell id="148" value="" style="endArrow=none;html=1;strokeWidth=1;entryX=0.5;entryY=1;entryDx=0;entryDy=0;fillColor=#a20025;strokeColor=#6F0000;" parent="1" edge="1">
                    <mxGeometry width="50" height="50" relative="1" as="geometry">
                        <mxPoint x="439" y="650" as="sourcePoint"/>
                        <mxPoint x="439" y="140" as="targetPoint"/>
                    </mxGeometry>
                </mxCell>
                <mxCell id="149" value="" style="endArrow=none;html=1;strokeWidth=1;entryX=0.5;entryY=1;entryDx=0;entryDy=0;startArrow=none;fillColor=#a20025;strokeColor=#6F0000;" parent="1" edge="1">
                    <mxGeometry width="50" height="50" relative="1" as="geometry">
                        <mxPoint x="599.9278846153848" y="340" as="sourcePoint"/>
                        <mxPoint x="599" y="147" as="targetPoint"/>
                    </mxGeometry>
                </mxCell>
                <mxCell id="150" style="edgeStyle=none;html=1;fontSize=12;entryX=0;entryY=0.5;entryDx=0;entryDy=0;entryPerimeter=0;" parent="1" edge="1" target="168">
                    <mxGeometry relative="1" as="geometry">
                        <mxPoint x="710" y="160" as="targetPoint"/>
                        <mxPoint x="440" y="160" as="sourcePoint"/>
                    </mxGeometry>
                </mxCell>
                <mxCell id="157" value="" style="endArrow=none;html=1;strokeWidth=1;entryX=0.5;entryY=1;entryDx=0;entryDy=0;fillColor=#a20025;strokeColor=#6F0000;" parent="1" edge="1">
                    <mxGeometry width="50" height="50" relative="1" as="geometry">
                        <mxPoint x="599" y="657" as="sourcePoint"/>
                        <mxPoint x="600" y="370" as="targetPoint"/>
                    </mxGeometry>
                </mxCell>
                <mxCell id="162" value="for each&lt;br style=&quot;font-size: 12px;&quot;&gt;transformer" style="edgeLabel;html=1;align=center;verticalAlign=middle;resizable=0;points=[];fontSize=12;labelBackgroundColor=none;" parent="1" vertex="1" connectable="0">
                    <mxGeometry x="79.99571428571468" y="440" as="geometry">
                        <mxPoint x="-22" y="-220" as="offset"/>
                    </mxGeometry>
                </mxCell>
                <mxCell id="163" value="" style="endArrow=none;html=1;strokeWidth=1;fillColor=#60a917;strokeColor=#2D7600;" parent="1" edge="1">
                    <mxGeometry width="50" height="50" relative="1" as="geometry">
                        <mxPoint y="520" as="sourcePoint"/>
                        <mxPoint x="1290" y="520" as="targetPoint"/>
                    </mxGeometry>
                </mxCell>
                <mxCell id="165" value="Produced()" style="text;html=1;align=center;verticalAlign=middle;resizable=0;points=[];autosize=1;strokeColor=none;fillColor=none;" vertex="1" parent="1">
                    <mxGeometry x="180" y="160" width="80" height="30" as="geometry"/>
                </mxCell>
                <mxCell id="166" value="Consumed()" style="text;html=1;align=center;verticalAlign=middle;resizable=0;points=[];autosize=1;strokeColor=none;fillColor=none;" vertex="1" parent="1">
                    <mxGeometry x="175" y="340" width="90" height="30" as="geometry"/>
                </mxCell>
                <mxCell id="167" value="&lt;font style=&quot;font-size: 18px;&quot;&gt;ConsumptionBuffer&lt;/font&gt;" style="text;html=1;align=center;verticalAlign=middle;resizable=0;points=[];autosize=1;strokeColor=none;fillColor=none;" vertex="1" parent="1">
                    <mxGeometry x="830" y="20" width="180" height="40" as="geometry"/>
                </mxCell>
                <mxCell id="170" value="" style="endArrow=none;html=1;strokeWidth=1;jumpStyle=none;strokeColor=#6F0000;shadow=0;backgroundOutline=0;enumerate=0;comic=0;fillColor=#a20025;" edge="1" parent="1" target="106">
                    <mxGeometry width="50" height="50" relative="1" as="geometry">
                        <mxPoint x="759.4099999999999" y="655" as="sourcePoint"/>
                        <mxPoint x="759.4099999999999" y="145.0000000000001" as="targetPoint"/>
                    </mxGeometry>
                </mxCell>
                <mxCell id="168" value="" style="verticalLabelPosition=bottom;verticalAlign=top;html=1;shape=mxgraph.flowchart.summing_function;" vertex="1" parent="1">
                    <mxGeometry x="750" y="150" width="20" height="20" as="geometry"/>
                </mxCell>
                <mxCell id="172" value="" style="verticalLabelPosition=bottom;verticalAlign=top;html=1;shape=mxgraph.flowchart.summing_function;" vertex="1" parent="1">
                    <mxGeometry x="1070" y="170" width="20" height="20" as="geometry"/>
                </mxCell>
                <mxCell id="173" style="edgeStyle=orthogonalEdgeStyle;html=1;fontSize=12;entryX=0;entryY=0.5;entryDx=0;entryDy=0;entryPerimeter=0;" edge="1" parent="1" target="172">
                    <mxGeometry relative="1" as="geometry">
                        <mxPoint x="760" y="170" as="targetPoint"/>
                        <mxPoint x="440" y="160" as="sourcePoint"/>
                        <Array as="points">
                            <mxPoint x="460" y="160"/>
                            <mxPoint x="460" y="180"/>
                        </Array>
                    </mxGeometry>
                </mxCell>
                <mxCell id="174" value="" style="verticalLabelPosition=bottom;verticalAlign=top;html=1;shape=mxgraph.flowchart.summing_function;" vertex="1" parent="1">
                    <mxGeometry x="910" y="330" width="20" height="20" as="geometry"/>
                </mxCell>
                <mxCell id="176" value="" style="endArrow=none;html=1;strokeWidth=1;entryX=0.5;entryY=1;entryDx=0;entryDy=0;jumpStyle=none;strokeColor=#6F0000;shadow=0;backgroundOutline=0;enumerate=0;comic=0;fillColor=#a20025;" edge="1" parent="1" target="175">
                    <mxGeometry width="50" height="50" relative="1" as="geometry">
                        <mxPoint x="1079.4099999999999" y="655" as="sourcePoint"/>
                        <mxPoint x="1079.4099999999999" y="145.0000000000001" as="targetPoint"/>
                    </mxGeometry>
                </mxCell>
                <mxCell id="175" value="" style="verticalLabelPosition=bottom;verticalAlign=top;html=1;shape=mxgraph.flowchart.summing_function;" vertex="1" parent="1">
                    <mxGeometry x="1070" y="350" width="20" height="20" as="geometry"/>
                </mxCell>
                <mxCell id="177" style="edgeStyle=orthogonalEdgeStyle;html=1;fontSize=12;entryX=0;entryY=0.5;entryDx=0;entryDy=0;entryPerimeter=0;" edge="1" parent="1">
                    <mxGeometry relative="1" as="geometry">
                        <mxPoint x="1070" y="360" as="targetPoint"/>
                        <mxPoint x="600" y="340" as="sourcePoint"/>
                        <Array as="points">
                            <mxPoint x="620" y="340"/>
                            <mxPoint x="620" y="360"/>
                        </Array>
                    </mxGeometry>
                </mxCell>
                <mxCell id="178" value="&lt;font style=&quot;font-size: 18px;&quot;&gt;ProductionBuffer&lt;/font&gt;" style="text;html=1;align=center;verticalAlign=middle;resizable=0;points=[];autosize=1;strokeColor=none;fillColor=none;" vertex="1" parent="1">
                    <mxGeometry x="1162" y="170" width="160" height="40" as="geometry"/>
                </mxCell>
                <mxCell id="179" value="&lt;font style=&quot;font-size: 18px;&quot;&gt;ConsumptionBuffer&lt;/font&gt;" style="text;html=1;align=center;verticalAlign=middle;resizable=0;points=[];autosize=1;strokeColor=none;fillColor=none;" vertex="1" parent="1">
                    <mxGeometry x="1151" y="230" width="180" height="40" as="geometry"/>
                </mxCell>
                <mxCell id="180" value="" style="line;strokeWidth=2;html=1;" vertex="1" parent="1">
                    <mxGeometry x="1162" y="215" width="160" height="10" as="geometry"/>
                </mxCell>
                <mxCell id="181" style="edgeStyle=orthogonalEdgeStyle;html=1;fontSize=12;entryX=1;entryY=1;entryDx=0;entryDy=0;" edge="1" parent="1" target="137">
                    <mxGeometry relative="1" as="geometry">
                        <mxPoint x="320" y="400" as="targetPoint"/>
                        <mxPoint x="1200" y="400" as="sourcePoint"/>
                        <Array as="points">
                            <mxPoint x="1100" y="400"/>
                        </Array>
                    </mxGeometry>
                </mxCell>
            </root>
        </mxGraphModel>
    </diagram>
</mxfile>